<svg xmlns="http://www.w3.org/2000/svg" version="1.1" xmlns:xlink="http://www.w3.org/1999/xlink" xmlns:svgjs="http://svgjs.dev/svgjs" width="2000" height="419" viewBox="0 0 2000 419"><g transform="matrix(1,0,0,1,-1.2121212121212466,44.930205662115696)"><svg viewBox="0 0 396 83" data-background-color="#f3f3f3" preserveAspectRatio="xMidYMid meet" height="419" width="2000" xmlns="http://www.w3.org/2000/svg" xmlns:xlink="http://www.w3.org/1999/xlink"><g id="tight-bounds" transform="matrix(1,0,0,1,0.2400000000000091,0.5290926944542775)"><svg viewBox="0 0 395.52 82.45811085305377" height="82.45811085305377" width="395.52"><g><svg viewBox="0 0 601.6814389241106 125.43870041724618" height="82.45811085305377" width="395.52"><g><rect width="8.185377320091238" height="108.91927677329623" x="176.5483722844088" y="8.259711821974975" fill="#4fb49a" opacity="1" stroke-width="0" stroke="transparent" fill-opacity="1" class="rect-yte-0" data-fill-palette-color="primary" rx="1%" id="yte-0" data-palette-color="#4fb49a"></rect></g><g transform="matrix(1,0,0,1,206.16143892411063,17.336318219749657)"><svg viewBox="0 0 395.52 90.76606397774687" height="90.76606397774687" width="395.52"><g id="textblocktransform"><svg viewBox="0 0 395.52 90.76606397774687" height="90.76606397774687" width="395.52" id="textblock"><g><svg viewBox="0 0 395.52 90.76606397774687" height="90.76606397774687" width="395.52"><g transform="matrix(1,0,0,1,0,0)"><svg width="395.52" viewBox="2.64 -35.72 157.97000000000003 36.26" height="90.76606397774687" data-palette-color="#4fb49a"><path d="M22.09-34.01L23.12-34.01Q27.49-34.01 27.49-29.1L27.49-29.1Q27.49-27.81 26.93-27.81L26.93-27.81Q26.61-27.81 25.43-28.53 24.24-29.25 23.46-29.52L23.46-29.52Q20-30.71 17.31-30.71 14.62-30.71 13.62-29.39L13.62-29.39Q12.23-27.56 12.23-22.66L12.23-22.66Q12.23-20.9 13.43-20.04 14.62-19.19 16.17-19.19 17.72-19.19 19.32-20.25 20.92-21.31 20.95-21.31L20.95-21.31Q22.17-21.31 22.62-20.36 23.07-19.41 23.07-17.26L23.07-17.26Q23.07-13.48 21.34-13.48L21.34-13.48Q20.87-13.48 19.41-14.66 17.94-15.84 16.31-15.84L16.31-15.84Q13.5-15.84 12.57-14.65L12.57-14.65Q11.96-13.87 11.96-9.96 11.96-6.05 13.35-4.25L13.35-4.25Q14.14-3.25 17.09-3.25 20.04-3.25 23.97-4.52L23.97-4.52Q25.07-4.86 25.73-5.32 26.39-5.79 27.08-6.31 27.76-6.84 27.93-6.84L27.93-6.84Q28.76-6.84 28.76-6.01L28.76-6.01 28.76-5.22Q28.76-3.34 28.11-2.14 27.47-0.93 26.93-0.59L26.93-0.59Q25.93 0.05 18.97 0.05L18.97 0.05 15.75 0.05 14.67 0.02Q5.47 0.02 4.05-0.18 2.64-0.39 2.64-1.27L2.64-1.27Q2.64-1.83 3.96-2.69 5.27-3.54 5.66-4.83 6.05-6.13 6.05-14.97L6.05-14.97 6.15-24.51Q6.15-29.2 5.57-30.32L5.57-30.32Q5.3-30.83 4.05-31.49 2.81-32.15 2.81-32.67L2.81-32.67Q2.81-33.64 4.39-33.89L4.39-33.89Q5.05-33.98 14.77-33.98L14.77-33.98 22.09-34.01ZM49.14-16.72L49.14-16.72Q49.14-18.7 47.87-19.89 46.6-21.07 44.5-21.07L44.5-21.07 44.04-21.07Q42.94-21.07 41.7-20.41 40.45-19.75 39.65-18.51L39.65-18.51Q38.03-16.02 38.03-12.33L38.03-12.33 38.03-10.89Q38.03-7.23 39.68-4.83 41.33-2.44 43.7-2.44L43.7-2.44 44.41-2.44Q46.48-2.44 47.8-3.86 49.12-5.27 49.12-7.47L49.12-7.47 49.17-7.98 49.17-8.5 49.22-9.77Q49.22-10.94 49.22-12.11L49.22-12.11 49.24-12.89 49.24-13.65 49.22-13.92 49.22-15.21 49.19-15.45 49.19-15.97Q49.14-16.46 49.14-16.72ZM49.27-23.63Q49.48-24.17 49.48-26.86 49.48-29.54 49.07-30.8 48.65-32.06 47.62-32.87 46.58-33.69 46.58-34.11 46.58-34.52 47.14-34.84L47.14-34.84Q48.65-35.72 52.07-35.72L52.07-35.72 52.66-35.72Q54.37-35.72 54.61-33.89L54.61-33.89Q54.69-33.33 54.69-19.93 54.69-6.54 54.88-5.24 55.08-3.93 55.81-3.2L55.81-3.2Q55.95-3.05 56.75-2.45 57.54-1.86 57.54-1.4 57.54-0.95 56.86-0.59L56.86-0.59Q55.47 0.17 52.32 0.17L52.32 0.17Q51.22 0.17 50.56-0.49L50.56-0.49Q49.27-1.78 49.16-1.78 49.05-1.78 48.04-1.22 47.04-0.66 45.64-0.09 44.24 0.49 42.16 0.49 40.09 0.49 38.33-0.42L38.33-0.42Q35.08-2.08 33.76-5.91L33.76-5.91Q32.98-8.2 32.98-10.94L32.98-10.94Q32.98-16.46 36.14-19.92 39.3-23.39 44.87-23.39L44.87-23.39 48.07-23.1Q49.05-23.1 49.27-23.63ZM86.54-2.67Q87.62-1.83 87.62-1.48 87.62-1.12 87.25-0.81L87.25-0.81Q86.2 0.15 82.76 0.15L82.76 0.15Q81.64 0.15 81.01-0.23 80.39-0.61 79.91-1.61 79.44-2.61 79.12-2.61L79.12-2.61Q78.8-2.59 77.7-1.81L77.7-1.81Q74.63 0.42 71.82 0.42L71.82 0.42Q71.8 0.42 71.75 0.42L71.75 0.42 71.02 0.42Q66.99 0.42 65.18-3L65.18-3Q64.25-4.79 64.24-11.73 64.23-18.68 64.01-19.37 63.79-20.07 62.46-20.69 61.13-21.31 61.13-21.66L61.13-21.66Q61.13-22.56 61.98-22.83L61.98-22.83Q63.89-23.44 66.84-23.44L66.84-23.44Q68.55-23.44 69.01-22.05L69.01-22.05Q69.62-20.26 69.62-13.54 69.62-6.81 70.21-5.37L70.21-5.37Q71.21-2.91 73.85-2.91L73.85-2.91Q75.21-2.91 76.57-3.61 77.92-4.32 78.68-5.52 79.44-6.71 79.44-12.1 79.44-17.48 79.08-18.87 78.73-20.26 78-21.06 77.27-21.85 77.27-22.31L77.27-22.31Q77.27-23.39 83-23.39L83-23.39Q84.2-23.39 84.57-22.86 84.93-22.34 84.93-20.95L84.93-20.95 84.86-19.51 84.74-13.01Q84.74-6.67 85.1-5.09 85.47-3.52 86.54-2.67ZM107.49-10.96Q109.42-9.13 109.42-6.34 109.42-3.54 107.12-1.55 104.83 0.44 100.77 0.44L100.77 0.44 100.11 0.44Q95.5 0.44 93.08-0.71L93.08-0.71Q91.74-1.34 91.74-3.54L91.74-3.54 91.74-4.15Q91.74-6.96 92.79-6.96L92.79-6.96Q93.67-6.96 94.87-5.31 96.06-3.66 96.87-3.1L96.87-3.1Q98.43-2.03 100.54-2.03 102.65-2.03 103.65-2.92 104.66-3.81 104.66-5.27 104.66-6.74 102.95-7.98L102.95-7.98Q102.04-8.64 98.74-10.06 95.43-11.47 93.79-13.02 92.16-14.58 92.16-17.41 92.16-20.24 94.52-22.01 96.89-23.78 100.36-23.78L100.36-23.78 101.02-23.78Q105.56-23.78 107.39-22.71L107.39-22.71Q108.34-22.14 108.34-19.58 108.34-17.02 107.12-17.02L107.12-17.02Q106.44-17.02 105.25-18.54 104.07-20.07 103.09-20.72 102.12-21.36 100.4-21.36 98.67-21.36 97.67-20.58 96.67-19.8 96.67-18.32 96.67-16.85 98.5-15.67L98.5-15.67Q98.97-15.36 102.56-13.79 106.14-12.23 107.49-10.96L107.49-10.96ZM128.97-15.87L128.97-15.87 128.97-16.63Q128.97-18.43 127.68-19.89 126.38-21.34 124.5-21.34L124.5-21.34 124.04-21.34Q123.7-21.29 123.57-21.29L123.57-21.29Q121.87-21.29 120.34-19.34 118.81-17.38 118.81-15.16L118.81-15.16 118.81-14.84Q118.81-14.06 119.74-14.06L119.74-14.06Q120.11-13.99 120.13-13.99L120.13-13.99 120.69-13.96 120.84-13.96 121.01-13.99 125.72-14.26 126.6-14.36Q128.97-14.36 128.97-15.87ZM118.81-9.4L118.81-9.4Q118.81-6.62 120.91-4.74 123.01-2.86 126.24-2.86L126.24-2.86Q127.53-2.86 128.59-3.23 129.65-3.61 130.91-4.15 132.17-4.69 132.49-4.69L132.49-4.69Q133.46-4.69 133.46-3.64L133.46-3.64Q133.46-2.22 129.85-0.61L129.85-0.61Q127.5 0.44 124.82 0.44L124.82 0.44 124.28 0.44Q119.69 0.44 116.66-2.34L116.66-2.34Q115.03-3.86 114.13-6.21 113.22-8.57 113.22-11.28L113.22-11.28 113.25-11.84 113.25-12.4Q113.25-14.75 114.32-17.02L114.32-17.02Q115.42-19.29 116.93-20.75L116.93-20.75Q120.13-23.83 124.53-23.85L124.53-23.85Q131.17-23.85 133.36-18.68L133.36-18.68Q134.05-17.04 134.05-15.67L134.05-15.67 134.05-15.19Q134.05-13.5 132.66-12.93 131.26-12.35 126.09-11.99 120.91-11.62 120.47-11.5L120.47-11.5Q118.81-11.08 118.81-9.4ZM151.33-11.3L151.33-11.3 150.92-11.3Q147.72-11.3 145.58-9.88 143.44-8.45 143.44-6.32L143.44-6.32 143.44-5.83Q143.44-4.59 144.21-3.6 144.98-2.61 146.2-2.61L146.2-2.61 146.5-2.56 147.23-2.56Q149.77-2.56 151.38-4.64L151.38-4.64Q152.09-5.54 152.09-8.35L152.09-8.35Q152.09-8.57 152.09-8.79L152.09-8.79 152.11-9.38 152.11-9.96Q152.11-11.3 151.33-11.3ZM139.47-19.19L139.47-19.19Q139.47-21 142.33-22.42 145.2-23.85 148.28-23.85L148.28-23.85Q148.38-23.85 148.47-23.85L148.47-23.85Q151.4-23.85 153.16-23.14L153.16-23.14Q156.73-21.73 157.24-17.14L157.24-17.14Q157.29-16.67 157.29-11 157.29-5.32 157.59-4.35 157.9-3.37 159.25-2.91 160.61-2.44 160.61-2.03L160.61-2.03Q160.61-1.15 159.73-0.68L159.73-0.68Q157.97 0.24 156.27 0.24 154.58 0.24 153.75-0.54L153.75-0.54Q152.26-1.93 152.16-1.93 152.06-1.93 149.4-0.7 146.74 0.54 144.74 0.54L144.74 0.54Q141.74 0.54 140.03-1.12 138.32-2.78 138.32-5.15L138.32-5.15 138.32-5.76Q138.32-8.3 140.51-10.23 142.71-12.16 148.43-13.23L148.43-13.23Q150.5-13.62 151.04-13.96L151.04-13.96Q152.11-14.65 152.11-16.75 152.11-18.85 150.99-19.97 149.87-21.09 147.99-21.09 146.11-21.09 144.36-18.91 142.61-16.72 141.17-16.72L141.17-16.72Q139.47-16.72 139.47-19.19Z" opacity="1" transform="matrix(1,0,0,1,0,0)" fill="#4fb49a" class="wordmark-text-0" data-fill-palette-color="primary" id="text-0"></path></svg></g></svg></g></svg></g></svg></g><g><svg viewBox="0 0 155.12068296479822 125.43870041724618" height="125.43870041724618" width="155.12068296479822"><g><svg xmlns="http://www.w3.org/2000/svg" xmlns:xlink="http://www.w3.org/1999/xlink" version="1.1" x="0" y="0" viewBox="4.9995 13.610419874090962 90.00087502340823 72.77941653927145" enable-background="new 0 0 100 100" xml:space="preserve" height="125.43870041724618" width="155.12068296479822" class="icon-icon-0" data-fill-palette-color="accent" id="icon-0"><g fill="#4fb49a" data-fill-palette-color="accent"><path fill="#4fb49a" d="M71.62 59.237L64.448 63.21A29.9 29.9 0 0 1 49.998 66.944 29.9 29.9 0 0 1 35.549 63.21L26.753 58.337C26.863 62.42 26.691 66.758 25.027 70.219 24.568 71.164 23.65 72.019 23.667 73.155 23.687 74.731 25.479 74.997 26.769 74.757 26.769 74.757 34.373 73.299 44.895 83.611 45.94 84.636 46.971 85.6 48.387 86.101 51.158 87.084 53.218 85.386 55.122 83.593 56.418 82.374 57.863 81.316 59.315 80.287 62.801 77.824 67.225 74.727 71.666 74.652 71.666 74.652 77.395 75.902 74.062 70.59 74.062 70.59 72.535 65.669 71.62 59.237" data-fill-palette-color="accent"></path><polygon fill="#4fb49a" points="14.998,55.277 13.331,65.277 13.331,78.611 19.998,78.611 19.998,65.277 18.331,55.277    18.331,46.051 14.998,44.204  " data-fill-palette-color="accent"></polygon><path fill="#4fb49a" d="M93.499 34.391L61.22 16.512A23.14 23.14 0 0 0 38.782 16.512L6.498 34.391C4.5 35.499 4.5 38.387 6.498 39.497L14.998 44.203V36.944H53.332V40.277H18.331V46.05L38.781 57.377A23.15 23.15 0 0 0 61.219 57.377L93.498 39.498C95.501 38.387 95.501 35.5 93.499 34.391" data-fill-palette-color="accent"></path></g></svg></g></svg></g></svg></g><defs></defs></svg><rect width="395.52" height="82.45811085305377" fill="none" stroke="none" visibility="hidden"></rect></g></svg></g></svg>