<svg xmlns="http://www.w3.org/2000/svg" version="1.1" xmlns:xlink="http://www.w3.org/1999/xlink" xmlns:svgjs="http://svgjs.dev/svgjs" width="1500" height="272" viewBox="0 0 1500 272"><g transform="matrix(1,0,0,1,-0.9090909090909918,0.5635399447023701)"><svg viewBox="0 0 396 72" data-background-color="#000000" preserveAspectRatio="xMidYMid meet" height="272" width="1500" xmlns="http://www.w3.org/2000/svg" xmlns:xlink="http://www.w3.org/1999/xlink"><g id="tight-bounds" transform="matrix(1,0,0,1,0.2400000000000091,-0.1491723383035719)"><svg viewBox="0 0 395.52 72.29834467660714" height="72.29834467660714" width="395.52"><g><svg viewBox="0 0 488.56660959978444 89.30662706898912" height="72.29834467660714" width="395.52"><g transform="matrix(1,0,0,1,0,12.342666982761884)"><svg viewBox="0 0 395.52000000000004 64.62129310346535" height="64.62129310346535" width="395.52000000000004"><g id="textblocktransform"><svg viewBox="0 0 395.52000000000004 64.62129310346535" height="64.62129310346535" width="395.52000000000004" id="textblock"><g><svg viewBox="0 0 395.52000000000004 37.809941934570176" height="37.809941934570176" width="395.52000000000004"><g transform="matrix(1,0,0,1,0,0)"><svg width="395.52000000000004" viewBox="1.88 -33.13 353.01 33.760000000000005" height="37.809941934570176" data-palette-color="#001f3f"><g class="wordmark-text-0" data-fill-palette-color="primary" id="text-0"><path d="M21.8 0L17.78 0 17.95-5.93 17.8-6.55 17.8-14.33 17.82-15.75Q17.82-18.73 16.31-20.15 14.8-21.58 11.53-21.58L11.53-21.58Q8.9-21.58 6.71-20.83 4.53-20.08 2.83-19.07L2.83-19.07 3.2-22.53Q4.15-23.1 5.46-23.66 6.78-24.23 8.46-24.6 10.15-24.98 12.18-24.98L12.18-24.98Q14.8-24.98 16.64-24.34 18.48-23.7 19.61-22.5 20.75-21.3 21.28-19.6 21.8-17.9 21.8-15.8L21.8-15.8 21.8 0ZM9.38 0.53L9.38 0.53Q5.75 0.53 3.81-1.24 1.88-3 1.88-6.28L1.88-6.28 1.88-7Q1.88-10.38 3.96-12.04 6.05-13.7 10.6-14.35L10.6-14.35 18.32-15.45 18.55-12.5 11.1-11.43Q8.3-11.03 7.1-10.06 5.9-9.1 5.9-7.23L5.9-7.23 5.9-6.83Q5.9-4.9 7.09-3.88 8.28-2.85 10.65-2.85L10.65-2.85Q12.75-2.85 14.25-3.58 15.75-4.3 16.68-5.53 17.6-6.75 17.93-8.25L17.93-8.25 18.55-5.5 17.78-5.5Q17.43-3.9 16.46-2.53 15.5-1.15 13.78-0.31 12.05 0.53 9.38 0.53ZM37.4 0.55L37.4 0.55Q32.15 0.55 29.59-2.29 27.02-5.13 27.02-10.33L27.02-10.33 27.02-14.13Q27.02-19.35 29.6-22.16 32.17-24.98 37.4-24.98L37.4-24.98Q38.95-24.98 40.22-24.69 41.5-24.4 42.51-23.94 43.52-23.48 44.22-22.98L44.22-22.98 44.57-19.45Q43.4-20.35 41.79-20.98 40.17-21.6 38-21.6L38-21.6Q34.5-21.6 32.79-19.66 31.07-17.73 31.07-14.03L31.07-14.03 31.07-10.43Q31.07-6.8 32.79-4.85 34.5-2.9 38-2.9L38-2.9Q40.25-2.9 41.89-3.53 43.52-4.15 44.8-5.05L44.8-5.05 44.42-1.48Q43.32-0.73 41.55-0.09 39.77 0.55 37.4 0.55ZM68.2 0L64.17 0 64.35-5.93 64.2-6.55 64.2-14.33 64.22-15.75Q64.22-18.73 62.71-20.15 61.2-21.58 57.92-21.58L57.92-21.58Q55.3-21.58 53.11-20.83 50.92-20.08 49.22-19.07L49.22-19.07 49.6-22.53Q50.55-23.1 51.86-23.66 53.17-24.23 54.86-24.6 56.55-24.98 58.57-24.98L58.57-24.98Q61.2-24.98 63.03-24.34 64.87-23.7 66.01-22.5 67.15-21.3 67.67-19.6 68.2-17.9 68.2-15.8L68.2-15.8 68.2 0ZM55.77 0.53L55.77 0.53Q52.15 0.53 50.21-1.24 48.27-3 48.27-6.28L48.27-6.28 48.27-7Q48.27-10.38 50.36-12.04 52.45-13.7 57-14.35L57-14.35 64.72-15.45 64.95-12.5 57.5-11.43Q54.7-11.03 53.5-10.06 52.3-9.1 52.3-7.23L52.3-7.23 52.3-6.83Q52.3-4.9 53.48-3.88 54.67-2.85 57.05-2.85L57.05-2.85Q59.15-2.85 60.65-3.58 62.15-4.3 63.07-5.53 64-6.75 64.32-8.25L64.32-8.25 64.95-5.5 64.17-5.5Q63.82-3.9 62.86-2.53 61.9-1.15 60.17-0.31 58.45 0.53 55.77 0.53ZM82.44 0.53L82.44 0.53Q78.04 0.53 75.74-2.2 73.44-4.93 73.44-10.15L73.44-10.15 73.44-14.18Q73.44-19.43 75.77-22.19 78.09-24.95 82.62-24.95L82.62-24.95Q84.87-24.95 86.52-24.19 88.17-23.43 89.19-22.05 90.22-20.68 90.57-18.8L90.57-18.8 91.89-18.8 90.69-15.08Q90.62-17.23 89.73-18.69 88.84-20.15 87.33-20.9 85.82-21.65 83.87-21.65L83.87-21.65Q80.77-21.65 79.13-19.85 77.49-18.05 77.49-14.55L77.49-14.55 77.49-9.9Q77.49-6.45 79.13-4.65 80.77-2.85 83.87-2.85L83.87-2.85Q85.72-2.85 87.14-3.56 88.57-4.28 89.51-5.54 90.44-6.8 90.79-8.4L90.79-8.4 91.79-5.5 90.59-5.5Q90.24-3.85 89.26-2.48 88.27-1.1 86.61-0.29 84.94 0.53 82.44 0.53ZM94.64 0L90.59 0 90.77-5.9 90.69-7.2 90.69-17.4 90.72-18.25 90.62-25.18 90.62-33.13 94.64-33.13 94.64 0ZM111.49 0.55L111.49 0.55Q105.92 0.55 103.09-2.18 100.27-4.9 100.27-9.98L100.27-9.98 100.27-14.33Q100.27-19.48 102.89-22.26 105.52-25.05 110.57-25.05L110.57-25.05Q113.97-25.05 116.24-23.79 118.52-22.53 119.67-20.2 120.82-17.88 120.82-14.65L120.82-14.65 120.82-13.75Q120.82-12.95 120.75-12.15 120.69-11.35 120.59-10.58L120.59-10.58 116.87-10.58Q116.92-11.78 116.93-12.85 116.94-13.93 116.94-14.83L116.94-14.83Q116.94-17.05 116.23-18.59 115.52-20.13 114.1-20.94 112.69-21.75 110.57-21.75L110.57-21.75Q107.42-21.75 105.84-19.93 104.27-18.1 104.27-14.7L104.27-14.7 104.27-12.38 104.29-11.88 104.29-9.55Q104.29-8.03 104.74-6.8 105.19-5.58 106.15-4.69 107.12-3.8 108.6-3.34 110.09-2.88 112.14-2.88L112.14-2.88Q114.52-2.88 116.57-3.5 118.62-4.13 120.42-5.2L120.42-5.2 120.04-1.7Q118.42-0.68 116.27-0.06 114.12 0.55 111.49 0.55ZM119.74-10.58L102.39-10.58 102.39-13.63 119.74-13.63 119.74-10.58ZM160.74 0L156.69 0 156.69-15.28Q156.69-17.2 156.2-18.61 155.71-20.03 154.6-20.8 153.49-21.58 151.61-21.58L151.61-21.58Q149.84-21.58 148.54-20.85 147.24-20.13 146.44-18.91 145.64-17.7 145.31-16.15L145.31-16.15 144.69-19.03 145.19-19.03Q145.59-20.6 146.54-21.95 147.49-23.3 149.11-24.13 150.74-24.95 153.14-24.95L153.14-24.95Q155.86-24.95 157.53-23.88 159.19-22.8 159.96-20.74 160.74-18.68 160.74-15.73L160.74-15.73 160.74 0ZM130.26 0L126.21 0 126.21-24.4 130.26-24.4 130.09-18.55 130.26-18.3 130.26 0ZM145.49 0L141.46 0 141.46-15.28Q141.46-17.2 140.98-18.61 140.49-20.03 139.39-20.8 138.29-21.58 136.41-21.58L136.41-21.58Q134.61-21.58 133.31-20.85 132.01-20.13 131.21-18.89 130.41-17.65 130.09-16.07L130.09-16.07 129.34-18.95 130.24-18.95Q130.61-20.6 131.54-21.96 132.46-23.33 134.05-24.14 135.64-24.95 137.91-24.95L137.91-24.95Q141.29-24.95 143.05-23.2 144.81-21.45 145.26-18.1L145.26-18.1Q145.39-17.6 145.44-17.01 145.49-16.43 145.49-15.85L145.49-15.85 145.49 0ZM177.26 0.55L177.26 0.55Q171.69 0.55 168.86-2.18 166.04-4.9 166.04-9.98L166.04-9.98 166.04-14.33Q166.04-19.48 168.66-22.26 171.29-25.05 176.34-25.05L176.34-25.05Q179.74-25.05 182.01-23.79 184.29-22.53 185.44-20.2 186.59-17.88 186.59-14.65L186.59-14.65 186.59-13.75Q186.59-12.95 186.52-12.15 186.46-11.35 186.36-10.58L186.36-10.58 182.64-10.58Q182.69-11.78 182.7-12.85 182.71-13.93 182.71-14.83L182.71-14.83Q182.71-17.05 182-18.59 181.29-20.13 179.87-20.94 178.46-21.75 176.34-21.75L176.34-21.75Q173.19-21.75 171.61-19.93 170.04-18.1 170.04-14.7L170.04-14.7 170.04-12.38 170.06-11.88 170.06-9.55Q170.06-8.03 170.51-6.8 170.96-5.58 171.92-4.69 172.89-3.8 174.37-3.34 175.86-2.88 177.91-2.88L177.91-2.88Q180.29-2.88 182.34-3.5 184.39-4.13 186.19-5.2L186.19-5.2 185.81-1.7Q184.19-0.68 182.04-0.06 179.89 0.55 177.26 0.55ZM185.51-10.58L168.16-10.58 168.16-13.63 185.51-13.63 185.51-10.58ZM201.38 0.55L201.38 0.55Q196.13 0.55 193.57-2.29 191.01-5.13 191.01-10.33L191.01-10.33 191.01-14.13Q191.01-19.35 193.58-22.16 196.16-24.98 201.38-24.98L201.38-24.98Q202.93-24.98 204.21-24.69 205.48-24.4 206.5-23.94 207.51-23.48 208.21-22.98L208.21-22.98 208.56-19.45Q207.38-20.35 205.77-20.98 204.16-21.6 201.98-21.6L201.98-21.6Q198.48-21.6 196.77-19.66 195.06-17.73 195.06-14.03L195.06-14.03 195.06-10.43Q195.06-6.8 196.77-4.85 198.48-2.9 201.98-2.9L201.98-2.9Q204.23-2.9 205.87-3.53 207.51-4.15 208.78-5.05L208.78-5.05 208.41-1.48Q207.31-0.73 205.53-0.09 203.76 0.55 201.38 0.55ZM223.38 0.63L223.38 0.63Q218.13 0.63 215.42-2.21 212.71-5.05 212.71-10.38L212.71-10.38 212.71-14.1Q212.71-19.4 215.43-22.23 218.16-25.05 223.38-25.05L223.38-25.05Q228.63-25.05 231.34-22.23 234.06-19.4 234.06-14.1L234.06-14.1 234.06-10.38Q234.06-5.05 231.34-2.21 228.63 0.63 223.38 0.63ZM223.38-2.68L223.38-2.68Q226.63-2.68 228.32-4.6 230.01-6.53 230.01-10.15L230.01-10.15 230.01-14.33Q230.01-17.93 228.32-19.84 226.63-21.75 223.38-21.75L223.38-21.75Q220.16-21.75 218.46-19.84 216.76-17.93 216.76-14.33L216.76-14.33 216.76-10.15Q216.76-6.53 218.46-4.6 220.16-2.68 223.38-2.68ZM260.05 0L256 0 256-15.18Q256-17.15 255.47-18.57 254.93-20 253.72-20.79 252.5-21.58 250.4-21.58L250.4-21.58Q248.48-21.58 247.07-20.85 245.65-20.13 244.78-18.89 243.9-17.65 243.55-16.07L243.55-16.07 242.83-18.95 243.7-18.95Q244.1-20.6 245.1-21.96 246.1-23.33 247.79-24.14 249.48-24.95 251.93-24.95L251.93-24.95Q254.83-24.95 256.62-23.85 258.4-22.75 259.23-20.69 260.05-18.63 260.05-15.63L260.05-15.63 260.05 0ZM243.73 0L239.68 0 239.68-24.4 243.73-24.4 243.55-18.55 243.73-18.32 243.73 0ZM286.7 0L282.65 0 282.65-15.18Q282.65-17.15 282.11-18.57 281.58-20 280.36-20.79 279.15-21.58 277.05-21.58L277.05-21.58Q275.13-21.58 273.71-20.85 272.3-20.13 271.43-18.89 270.55-17.65 270.2-16.07L270.2-16.07 269.48-18.95 270.35-18.95Q270.75-20.6 271.75-21.96 272.75-23.33 274.44-24.14 276.13-24.95 278.58-24.95L278.58-24.95Q281.48-24.95 283.26-23.85 285.05-22.75 285.88-20.69 286.7-18.63 286.7-15.63L286.7-15.63 286.7 0ZM270.38 0L266.33 0 266.33-24.4 270.38-24.4 270.2-18.55 270.38-18.32 270.38 0ZM303.22 0.55L303.22 0.55Q297.65 0.55 294.82-2.18 292-4.9 292-9.98L292-9.98 292-14.33Q292-19.48 294.62-22.26 297.25-25.05 302.3-25.05L302.3-25.05Q305.7-25.05 307.97-23.79 310.25-22.53 311.4-20.2 312.55-17.88 312.55-14.65L312.55-14.65 312.55-13.75Q312.55-12.95 312.49-12.15 312.42-11.35 312.32-10.58L312.32-10.58 308.6-10.58Q308.65-11.78 308.66-12.85 308.67-13.93 308.67-14.83L308.67-14.83Q308.67-17.05 307.96-18.59 307.25-20.13 305.84-20.94 304.42-21.75 302.3-21.75L302.3-21.75Q299.15-21.75 297.57-19.93 296-18.1 296-14.7L296-14.7 296-12.38 296.02-11.88 296.02-9.55Q296.02-8.03 296.47-6.8 296.92-5.58 297.88-4.69 298.85-3.8 300.34-3.34 301.82-2.88 303.87-2.88L303.87-2.88Q306.25-2.88 308.3-3.5 310.35-4.13 312.15-5.2L312.15-5.2 311.77-1.7Q310.15-0.68 308-0.06 305.85 0.55 303.22 0.55ZM311.47-10.58L294.12-10.58 294.12-13.63 311.47-13.63 311.47-10.58ZM327.35 0.55L327.35 0.55Q322.1 0.55 319.53-2.29 316.97-5.13 316.97-10.33L316.97-10.33 316.97-14.13Q316.97-19.35 319.55-22.16 322.12-24.98 327.35-24.98L327.35-24.98Q328.9-24.98 330.17-24.69 331.45-24.4 332.46-23.94 333.47-23.48 334.17-22.98L334.17-22.98 334.52-19.45Q333.35-20.35 331.73-20.98 330.12-21.6 327.95-21.6L327.95-21.6Q324.45-21.6 322.73-19.66 321.02-17.73 321.02-14.03L321.02-14.03 321.02-10.43Q321.02-6.8 322.73-4.85 324.45-2.9 327.95-2.9L327.95-2.9Q330.2-2.9 331.83-3.53 333.47-4.15 334.75-5.05L334.75-5.05 334.37-1.48Q333.27-0.73 331.5-0.09 329.72 0.55 327.35 0.55ZM348.52 0.5L348.52 0.5Q345.69 0.5 343.97-0.35 342.24-1.2 341.47-2.93 340.69-4.65 340.69-7.23L340.69-7.23 340.69-22.63 344.69-22.63 344.69-7.7Q344.69-5.3 345.79-4.16 346.89-3.03 349.49-3.03L349.49-3.03Q350.97-3.03 352.33-3.35 353.69-3.68 354.89-4.28L354.89-4.28 354.52-0.8Q353.34-0.2 351.77 0.15 350.19 0.5 348.52 0.5ZM354.27-20.8L336.69-20.8 336.69-24.05 354.64-24.05 354.27-20.8ZM344.59-23.65L340.72-23.65 340.69-30.5 344.77-31.03 344.59-23.65Z" fill="#001f3f" data-fill-palette-color="primary"></path></g></svg></g></svg></g><g transform="matrix(1,0,0,1,163.31020800000002,46.73596178671576)"><svg viewBox="0 0 232.20979200000002 17.885331316749586" height="17.885331316749586" width="232.20979200000002"><g transform="matrix(1,0,0,1,0,0)"><svg width="232.20979200000002" viewBox="3.91 -39.06 662.4100000000001 51.02" height="17.885331316749586" data-palette-color="#111111"><path d="M8.91-31.62L8.91-20.63 22.83-20.63 22.83-16.72 8.91-16.72 8.91-4.03 15.36-4.03Q18.97-4.03 21.45-4.09 23.93-4.15 25.39-4.39L25.39-4.39 25.39 0 3.91 0Q4.17-1.46 4.22-4.24 4.27-7.01 4.27-10.62L4.27-10.62 4.27-25.02Q4.27-28.64 4.22-31.41 4.17-34.18 3.91-35.64L3.91-35.64 24.66-35.64 24.66-31.62 8.91-31.62ZM53.59 0L47.97 0 34.91-18.31Q34.1-19.46 33.43-20.32 32.76-21.19 31.93-22.24 31.1-23.29 29.78-24.9L29.78-24.9 35.4-24.9 48.58-6.59Q49.46-5.37 50.1-4.55 50.73-3.74 51.5-2.73 52.27-1.73 53.59 0L53.59 0ZM34.42-6.59L40.26-15.04 41.89-9.86 35.03 0 29.54 0Q30.88-1.76 31.67-2.81 32.47-3.86 33.08-4.69 33.69-5.52 34.42-6.59L34.42-6.59ZM48.34-18.31L42.6-9.89 41.01-15.01 47.73-24.9 53.22-24.9Q51.98-23.27 51.17-22.22 50.36-21.17 49.74-20.3 49.12-19.43 48.34-18.31L48.34-18.31ZM57.37-24.9L57.37-24.9 61.76-24.9Q62.03-24.29 62.3-23.12 62.57-21.95 62.74-20.26L62.74-20.26Q64.47-22.53 66.77-23.96 69.06-25.39 71.77-25.39L71.77-25.39Q74.56-25.39 76.64-23.8 78.73-22.22 79.89-19.43 81.05-16.65 81.05-13.06L81.05-13.06Q81.05-8.89 79.55-5.82 78.05-2.76 75.53-1.07 73.02 0.61 69.94 0.61L69.94 0.61Q67.99 0.61 66.41-0.12 64.84-0.85 63.11-2.08L63.11-2.08 63.11 3.66Q63.11 6.59 63.25 8.5 63.4 10.4 63.72 11.96L63.72 11.96 58.59 11.96Q58.59 11.96 58.59 10.56 58.59 9.16 58.59 6.86 58.59 4.57 58.59 1.84 58.59-0.88 58.59-3.58 58.59-6.27 58.59-8.47 58.59-10.67 58.59-11.84L58.59-11.84Q58.59-16.41 58.39-19.62 58.2-22.83 57.37-24.9ZM63.11-14.04L63.11-14.04 63.11-6.35Q64.79-5.18 65.89-4.54 66.99-3.91 67.9-3.66 68.82-3.42 69.94-3.42L69.94-3.42Q71.67-3.42 73.18-4.49 74.68-5.57 75.61-7.57 76.53-9.57 76.53-12.33L76.53-12.33Q76.53-16.41 75.04-18.82 73.55-21.24 70.92-21.24L70.92-21.24Q68.82-21.24 66.65-19.41 64.47-17.58 63.11-14.04ZM87.52-39.06L92.52-39.06 92.52-11.6Q92.52-10.03 92.58-7.81 92.64-5.59 92.75-3.47 92.86-1.34 93.01 0L93.01 0 88.01 0 88.01-27.59Q88.01-34.74 87.52-39.06L87.52-39.06ZM99.48-12.33L99.48-12.33Q99.48-16.53 101.1-19.45 102.72-22.36 105.42-23.88 108.12-25.39 111.32-25.39L111.32-25.39Q114.69-25.39 117.24-23.88 119.79-22.36 121.23-19.45 122.67-16.53 122.67-12.33L122.67-12.33Q122.67-8.13 121.05-5.25 119.42-2.37 116.74-0.88 114.05 0.61 110.83 0.61L110.83 0.61Q107.49 0.61 104.92-0.88 102.36-2.37 100.92-5.25 99.48-8.13 99.48-12.33ZM103.99-12.33L103.99-12.33Q103.99-8.06 105.96-5.68 107.92-3.3 111.07-3.3L111.07-3.3Q114.03-3.3 116.09-5.68 118.15-8.06 118.15-12.33L118.15-12.33Q118.15-16.63 116.19-19.06 114.22-21.48 111.07-21.48L111.07-21.48Q108.12-21.48 106.06-19.06 103.99-16.63 103.99-12.33ZM133.29-14.16L133.29 0 128.77 0 128.77-15.01Q128.77-18.6 128.37-21.12 127.97-23.63 127.55-24.9L127.55-24.9 131.95-24.9Q132.14-24.39 132.32-23.49 132.51-22.58 132.68-21.66 132.85-20.73 132.92-20.14L132.92-20.14Q134.7-22.68 136.95-24.04 139.2-25.39 140.86-25.39L140.86-25.39Q142.91-25.39 144.14-24.23 145.37-23.07 145.92-21.22 146.47-19.36 146.47-17.21L146.47-17.21 142.57-16.36Q142.57-18.19 141.88-19.59 141.2-21 139.76-21L139.76-21Q138.73-21 137.43-19.98 136.12-18.97 134.97-17.4 133.83-15.82 133.29-14.16L133.29-14.16ZM170.86-11.84L170.86-11.84 152.69-11.84 152.69-15.26 166.49-15.26Q166.49-18.41 164.77-20.07 163.05-21.73 160.39-21.73L160.39-21.73Q157.19-21.73 155.37-19.46 153.55-17.19 153.55-12.33L153.55-12.33Q153.55-7.81 155.76-5.62 157.97-3.42 161.36-3.42L161.36-3.42Q163.73-3.42 166.01-3.97 168.3-4.52 170.52-5.86L170.52-5.86 171.01-1.83Q168.42-0.49 166 0.06 163.58 0.61 160.75 0.61L160.75 0.61Q157.65 0.61 154.98-0.83 152.3-2.27 150.67-5.1 149.03-7.93 149.03-12.08L149.03-12.08Q149.03-16.14 150.46-19.12 151.89-22.09 154.51-23.74 157.14-25.39 160.75-25.39L160.75-25.39Q163.78-25.39 165.74-24.37 167.71-23.34 168.83-21.63 169.96-19.92 170.42-17.86 170.88-15.8 170.88-13.75L170.88-13.75Q170.88-13.43 170.88-12.81 170.88-12.18 170.86-11.84ZM205.42-5.25L205.42-5.25 205.42-1.34Q203.74-0.27 202.2 0.17 200.66 0.61 199.37 0.61L199.37 0.61Q197.47 0.61 195.9-0.01 194.34-0.63 193.41-2.21 192.48-3.78 192.48-6.59L192.48-6.59Q192.48-7.47 192.48-9.47 192.48-11.47 192.48-14.2 192.48-16.92 192.48-20.03 192.48-23.14 192.48-26.29 192.48-29.44 192.48-32.23L192.48-32.23 197-32.23Q197-29.1 197-25.55 197-22 197-18.68 197-15.36 197-12.9 197-10.45 197-9.52L197-9.52Q197-7.01 197.33-5.69 197.66-4.37 198.34-3.89 199.03-3.42 200.13-3.42L200.13-3.42Q202.13-3.42 205.42-5.25ZM204.94-24.29L204.94-20.75 187.6-20.75 187.6-24.29 204.94-24.29ZM215.31-14.16L215.31-14.16 215.31 0 210.79 0Q210.79-2.95 210.79-6.29 210.79-9.62 210.79-12.94 210.79-16.26 210.79-19.21 210.79-22.17 210.79-24.35 210.79-26.54 210.79-27.59L210.79-27.59Q210.79-31.52 210.74-34.51 210.7-37.5 210.43-39.06L210.43-39.06 215.31-39.06Q215.31-36.21 215.31-33.07 215.31-29.93 215.31-27.12 215.31-24.32 215.31-22.45 215.31-20.58 215.31-20.26L215.31-20.26Q217.12-22.8 219.57-24.1 222.02-25.39 224.59-25.39L224.59-25.39Q228.49-25.39 230.57-22.84 232.64-20.29 232.64-15.26L232.64-15.26Q232.64-14.16 232.64-12.33 232.64-10.5 232.64-8.33 232.64-6.15 232.64-3.98 232.64-1.81 232.64 0L232.64 0 228.13 0Q228.13-1.64 228.13-3.58 228.13-5.52 228.13-7.43 228.13-9.35 228.13-10.94 228.13-12.52 228.13-13.43L228.13-13.43Q228.13-16.48 227.59-18.15 227.05-19.82 225.97-20.47 224.88-21.12 223.24-21.12L223.24-21.12Q221.49-21.12 219.87-20.07 218.26-19.02 217.06-17.42 215.85-15.82 215.31-14.16ZM260.08-11.84L260.08-11.84 241.92-11.84 241.92-15.26 255.71-15.26Q255.71-18.41 253.99-20.07 252.27-21.73 249.61-21.73L249.61-21.73Q246.41-21.73 244.59-19.46 242.77-17.19 242.77-12.33L242.77-12.33Q242.77-7.81 244.98-5.62 247.19-3.42 250.59-3.42L250.59-3.42Q252.95-3.42 255.24-3.97 257.52-4.52 259.74-5.86L259.74-5.86 260.23-1.83Q257.64-0.49 255.22 0.06 252.81 0.61 249.98 0.61L249.98 0.61Q246.87 0.61 244.2-0.83 241.53-2.27 239.89-5.1 238.26-7.93 238.26-12.08L238.26-12.08Q238.26-16.14 239.68-19.12 241.11-22.09 243.74-23.74 246.36-25.39 249.98-25.39L249.98-25.39Q253-25.39 254.97-24.37 256.93-23.34 258.06-21.63 259.18-19.92 259.64-17.86 260.11-15.8 260.11-13.75L260.11-13.75Q260.11-13.43 260.11-12.81 260.11-12.18 260.08-11.84ZM284.15-39.06L284.15 0 279.63 0Q279.63-2.95 279.63-6.29 279.63-9.62 279.63-12.94 279.63-16.26 279.63-19.2 279.63-22.14 279.63-24.34 279.63-26.54 279.63-27.59L279.63-27.59Q279.63-31.52 279.58-34.51 279.54-37.5 279.27-39.06L279.27-39.06 284.15-39.06ZM282.93-13.43L294.04-24.9 300.14-24.9 286.74-12.79 282.93-13.43ZM294.89 0L283.54-13.43 286.1-16.11 300.87 0 294.89 0ZM326.99 0L326.99 0 322.48 0Q322.48 0 322.48-1.05 322.48-2.1 322.48-3.76 322.48-5.42 322.48-7.28 322.48-9.13 322.48-10.78 322.48-12.43 322.48-13.43L322.48-13.43Q322.48-16.48 321.94-18.15 321.4-19.82 320.33-20.47 319.25-21.12 317.59-21.12L317.59-21.12Q315.84-21.12 314.23-20.07 312.61-19.02 311.41-17.42 310.2-15.82 309.66-14.16L309.66-14.16 309.66 0 305.14 0Q305.14 0 305.14-1.09 305.14-2.17 305.14-3.91 305.14-5.64 305.14-7.68 305.14-9.72 305.14-11.66 305.14-13.6 305.14-15.01L305.14-15.01Q305.14-18.6 304.74-21.12 304.34-23.63 303.92-24.9L303.92-24.9 308.32-24.9Q308.51-24.39 308.7-23.49 308.88-22.58 309.05-21.66 309.22-20.73 309.29-20.14L309.29-20.14Q311.61-22.92 313.98-24.16 316.35-25.39 318.94-25.39L318.94-25.39Q322.84-25.39 324.92-22.84 326.99-20.29 326.99-15.26L326.99-15.26Q326.99-14.04 326.99-12.15 326.99-10.25 326.99-8.15 326.99-6.05 326.99-4.2 326.99-2.34 326.99-1.17 326.99 0 326.99 0ZM332.61-12.33L332.61-12.33Q332.61-16.53 334.23-19.45 335.85-22.36 338.55-23.88 341.25-25.39 344.45-25.39L344.45-25.39Q347.82-25.39 350.37-23.88 352.92-22.36 354.36-19.45 355.8-16.53 355.8-12.33L355.8-12.33Q355.8-8.13 354.18-5.25 352.55-2.37 349.87-0.88 347.18 0.61 343.96 0.61L343.96 0.61Q340.61 0.61 338.05-0.88 335.49-2.37 334.05-5.25 332.61-8.13 332.61-12.33ZM337.12-12.33L337.12-12.33Q337.12-8.06 339.09-5.68 341.05-3.3 344.2-3.3L344.2-3.3Q347.16-3.3 349.22-5.68 351.28-8.06 351.28-12.33L351.28-12.33Q351.28-16.63 349.32-19.06 347.35-21.48 344.2-21.48L344.2-21.48Q341.25-21.48 339.19-19.06 337.12-16.63 337.12-12.33ZM368.86-5.25L375.21-24.9 378.87-24.9 385.22-5.25 390.34-24.9 394.86-24.9Q394.3-23.05 393.87-21.64 393.44-20.24 393.08-18.97 392.71-17.7 392.3-16.24L392.3-16.24 387.78 0 383.14 0 377.04-19.17 370.93 0 366.3 0 361.78-16.24Q361.24-18.19 360.66-20.14 360.07-22.09 359.22-24.9L359.22-24.9 363.73-24.9 368.86-5.25ZM400.11-39.06L405.11-39.06 405.11-11.6Q405.11-10.03 405.17-7.81 405.23-5.59 405.34-3.47 405.45-1.34 405.6 0L405.6 0 400.59 0 400.59-27.59Q400.59-34.74 400.11-39.06L400.11-39.06ZM433.89-11.84L433.89-11.84 415.73-11.84 415.73-15.26 429.52-15.26Q429.52-18.41 427.8-20.07 426.08-21.73 423.42-21.73L423.42-21.73Q420.22-21.73 418.4-19.46 416.58-17.19 416.58-12.33L416.58-12.33Q416.58-7.81 418.79-5.62 421-3.42 424.4-3.42L424.4-3.42Q426.76-3.42 429.05-3.97 431.33-4.52 433.55-5.86L433.55-5.86 434.04-1.83Q431.45-0.49 429.03 0.06 426.62 0.61 423.79 0.61L423.79 0.61Q420.69 0.61 418.01-0.83 415.34-2.27 413.7-5.1 412.07-7.93 412.07-12.08L412.07-12.08Q412.07-16.14 413.5-19.12 414.92-22.09 417.55-23.74 420.17-25.39 423.79-25.39L423.79-25.39Q426.81-25.39 428.78-24.37 430.74-23.34 431.87-21.63 432.99-19.92 433.45-17.86 433.92-15.8 433.92-13.75L433.92-13.75Q433.92-13.43 433.92-12.81 433.92-12.18 433.89-11.84ZM456.5-39.06L461.62-39.06 461.62-12.94Q461.62-8.33 462.15-5.19 462.67-2.05 463.46 0L463.46 0 459.06 0Q458.79-0.63 458.41-1.9 458.04-3.17 457.72-4.52L457.72-4.52Q455.99-2.05 453.74-0.72 451.49 0.61 448.81 0.61L448.81 0.61Q445.83 0.61 443.63-0.85 441.43-2.32 440.24-4.99 439.04-7.67 439.04-11.23L439.04-11.23Q439.04-15.55 440.58-18.73 442.12-21.9 444.74-23.65 447.37-25.39 450.64-25.39L450.64-25.39Q452.2-25.39 453.95-24.76 455.69-24.12 457.11-23.32L457.11-23.32 457.11-30.15Q457.11-33.08 456.97-35.3 456.84-37.52 456.5-39.06L456.5-39.06ZM457.11-9.77L457.11-9.77 457.11-19.41Q455.3-20.39 453.9-20.81 452.49-21.24 450.64-21.24L450.64-21.24Q448.78-21.24 447.17-20.13 445.56-19.02 444.56-16.94 443.56-14.87 443.56-11.96L443.56-11.96Q443.56-7.71 445.02-5.51 446.49-3.3 449.66-3.3L449.66-3.3Q451.15-3.3 452.6-4.24 454.06-5.18 455.25-6.67 456.45-8.15 457.11-9.77ZM489.7-23.56L489.7-23.56 489.7-0.61Q489.7 3.69 488.11 6.35 486.52 9.01 484.03 10.24 481.54 11.47 478.83 11.47L478.83 11.47Q476.52 11.47 474.2 10.67 471.88 9.86 469.92 8.54L469.92 8.54 471.51 4.76Q473.24 6.01 475.01 6.79 476.78 7.57 478.59 7.57L478.59 7.57Q479.86 7.57 481.4 6.92 482.94 6.27 484.06 4.68 485.18 3.08 485.18 0.24L485.18 0.24 485.18-4.76Q483.28-2.37 481.03-1.12 478.79 0.12 476.76 0.12L476.76 0.12Q474.51 0.12 472.54-0.95 470.56-2.03 469.33-4.38 468.09-6.74 468.09-10.62L468.09-10.62Q468.09-13.43 468.82-16.06 469.56-18.7 471.1-20.81 472.63-22.92 475.04-24.16 477.44-25.39 480.79-25.39L480.79-25.39Q483.01-25.39 485.35-24.8 487.7-24.22 489.7-23.56ZM485.18-9.64L485.18-9.64 485.18-20.26Q484.03-20.7 482.61-20.97 481.18-21.24 480.06-21.24L480.06-21.24Q477.39-21.24 475.75-19.85 474.1-18.46 473.35-16.31 472.61-14.16 472.61-11.84L472.61-11.84Q472.61-8.84 473.22-7.13 473.83-5.42 474.88-4.72 475.93-4.03 477.25-4.03L477.25-4.03Q479.1-4.03 481.35-5.49 483.6-6.96 485.18-9.64ZM517.14-11.84L517.14-11.84 498.97-11.84 498.97-15.26 512.77-15.26Q512.77-18.41 511.05-20.07 509.33-21.73 506.66-21.73L506.66-21.73Q503.47-21.73 501.65-19.46 499.83-17.19 499.83-12.33L499.83-12.33Q499.83-7.81 502.04-5.62 504.25-3.42 507.64-3.42L507.64-3.42Q510.01-3.42 512.29-3.97 514.57-4.52 516.8-5.86L516.8-5.86 517.28-1.83Q514.7-0.49 512.28 0.06 509.86 0.61 507.03 0.61L507.03 0.61Q503.93 0.61 501.26-0.83 498.58-2.27 496.95-5.1 495.31-7.93 495.31-12.08L495.31-12.08Q495.31-16.14 496.74-19.12 498.17-22.09 500.79-23.74 503.42-25.39 507.03-25.39L507.03-25.39Q510.06-25.39 512.02-24.37 513.99-23.34 515.11-21.63 516.23-19.92 516.7-17.86 517.16-15.8 517.16-13.75L517.16-13.75Q517.16-13.43 517.16-12.81 517.16-12.18 517.14-11.84ZM535.47-12.33L535.47-12.33Q535.47-16.53 537.09-19.45 538.71-22.36 541.41-23.88 544.11-25.39 547.31-25.39L547.31-25.39Q550.68-25.39 553.23-23.88 555.78-22.36 557.22-19.45 558.66-16.53 558.66-12.33L558.66-12.33Q558.66-8.13 557.04-5.25 555.41-2.37 552.73-0.88 550.04 0.61 546.82 0.61L546.82 0.61Q543.48 0.61 540.91-0.88 538.35-2.37 536.91-5.25 535.47-8.13 535.47-12.33ZM539.98-12.33L539.98-12.33Q539.98-8.06 541.95-5.68 543.91-3.3 547.06-3.3L547.06-3.3Q550.02-3.3 552.08-5.68 554.14-8.06 554.14-12.33L554.14-12.33Q554.14-16.63 552.18-19.06 550.21-21.48 547.06-21.48L547.06-21.48Q544.11-21.48 542.05-19.06 539.98-16.63 539.98-12.33ZM583.07-6.35L583.07-6.35 583.56-2.08Q581.71-0.68 579.8-0.04 577.9 0.61 575.14 0.61L575.14 0.61Q571.87 0.61 569.18-0.92 566.5-2.44 564.9-5.26 563.3-8.08 563.3-11.96L563.3-11.96Q563.3-15.65 564.85-18.7 566.4-21.75 569.25-23.57 572.11-25.39 575.99-25.39L575.99-25.39Q578.43-25.39 580.2-24.82 581.97-24.24 583.32-23.32L583.32-23.32 582.46-18.92Q580.83-20.14 579.17-20.75 577.51-21.36 575.63-21.36L575.63-21.36Q572.38-21.36 570.16-18.95 567.94-16.53 567.94-12.21L567.94-12.21Q567.94-8.28 570.01-5.85 572.09-3.42 575.63-3.42L575.63-3.42Q577.82-3.42 579.65-4.17 581.49-4.93 583.07-6.35ZM610.02-11.84L610.02-11.84 591.86-11.84 591.86-15.26 605.65-15.26Q605.65-18.41 603.93-20.07 602.21-21.73 599.55-21.73L599.55-21.73Q596.35-21.73 594.53-19.46 592.71-17.19 592.71-12.33L592.71-12.33Q592.71-7.81 594.92-5.62 597.13-3.42 600.53-3.42L600.53-3.42Q602.89-3.42 605.18-3.97 607.46-4.52 609.68-5.86L609.68-5.86 610.17-1.83Q607.58-0.49 605.16 0.06 602.75 0.61 599.92 0.61L599.92 0.61Q596.81 0.61 594.14-0.83 591.47-2.27 589.83-5.1 588.2-7.93 588.2-12.08L588.2-12.08Q588.2-16.14 589.63-19.12 591.05-22.09 593.68-23.74 596.3-25.39 599.92-25.39L599.92-25.39Q602.94-25.39 604.91-24.37 606.87-23.34 608-21.63 609.12-19.92 609.58-17.86 610.05-15.8 610.05-13.75L610.05-13.75Q610.05-13.43 610.05-12.81 610.05-12.18 610.02-11.84ZM638.37 0L638.37 0 634.09 0Q633.75-0.78 633.49-2.28 633.24-3.78 633.12-5.38 632.99-6.98 632.99-8.06L632.99-8.06 632.99-10.01Q632.04-7.5 630.55-5.04 629.06-2.59 627.06-0.99 625.06 0.61 622.5 0.61L622.5 0.61Q619.42 0.61 617.3-2.11 615.17-4.83 615.17-10.01L615.17-10.01Q615.17-12.92 615.95-15.66 616.73-18.41 618.35-20.61 619.96-22.8 622.45-24.1 624.94-25.39 628.36-25.39L628.36-25.39Q630.72-25.39 632.82-25.09 634.92-24.78 636.78-24.29L636.78-24.29 636.78-12.94Q636.78-8.33 637.22-5.19 637.66-2.05 638.37 0ZM632.26-17.94L632.26-17.94 632.26-21.04Q631.65-21.19 630.74-21.34 629.82-21.48 627.99-21.48L627.99-21.48Q624.82-21.48 623-19.84 621.18-18.19 620.43-15.58 619.69-12.96 619.69-10.01L619.69-10.01Q619.69-7.18 620.74-5.36 621.79-3.54 623.23-3.54L623.23-3.54Q624.52-3.54 625.82-4.68 627.11-5.81 628.27-7.6 629.43-9.4 630.32-11.39 631.21-13.38 631.74-15.14 632.26-16.89 632.26-17.94ZM666.32 0L666.32 0 661.8 0Q661.8 0 661.8-1.05 661.8-2.1 661.8-3.76 661.8-5.42 661.8-7.28 661.8-9.13 661.8-10.78 661.8-12.43 661.8-13.43L661.8-13.43Q661.8-16.48 661.26-18.15 660.73-19.82 659.65-20.47 658.58-21.12 656.92-21.12L656.92-21.12Q655.16-21.12 653.55-20.07 651.94-19.02 650.73-17.42 649.52-15.82 648.98-14.16L648.98-14.16 648.98 0 644.47 0Q644.47 0 644.47-1.09 644.47-2.17 644.47-3.91 644.47-5.64 644.47-7.68 644.47-9.72 644.47-11.66 644.47-13.6 644.47-15.01L644.47-15.01Q644.47-18.6 644.06-21.12 643.66-23.63 643.25-24.9L643.25-24.9 647.64-24.9Q647.84-24.39 648.02-23.49 648.2-22.58 648.37-21.66 648.54-20.73 648.62-20.14L648.62-20.14Q650.94-22.92 653.3-24.16 655.67-25.39 658.26-25.39L658.26-25.39Q662.17-25.39 664.24-22.84 666.32-20.29 666.32-15.26L666.32-15.26Q666.32-14.04 666.32-12.15 666.32-10.25 666.32-8.15 666.32-6.05 666.32-4.2 666.32-2.34 666.32-1.17 666.32 0 666.32 0Z" opacity="1" transform="matrix(1,0,0,1,0,0)" fill="#111111" class="slogan-text-1" data-fill-palette-color="secondary" id="text-1"></path></svg></g></svg></g></svg></g></svg></g><g transform="matrix(1,0,0,1,404.44601985214564,0)"><svg viewBox="0 0 84.12058974763879 89.30662706898912" height="89.30662706898912" width="84.12058974763879"><g><svg xmlns="http://www.w3.org/2000/svg" xmlns:xlink="http://www.w3.org/1999/xlink" version="1.1" x="0" y="0" viewBox="18.45259014601097 16.433999999999997 50.86045138066502 53.995999999999995" enable-background="new 0 0 90 90" xml:space="preserve" height="89.30662706898912" width="84.12058974763879" class="icon-icon-0" data-fill-palette-color="accent" id="icon-0"><path d="M68.617 46.749c-1.019-2.724-3.037-4.888-5.683-6.092-1.43-0.651-2.945-0.979-4.506-0.979-1.95 0-3.812 0.546-5.438 1.486l-9.532-11.926c0.198-0.314 0.38-0.64 0.538-0.983 1.908-4.194 0.05-9.16-4.141-11.068-1.097-0.5-2.261-0.753-3.458-0.753-3.269 0-6.257 1.92-7.613 4.894-1.909 4.193-0.05 9.158 4.143 11.071 1.097 0.5 2.262 0.753 3.458 0.753 1.759 0 3.428-0.572 4.815-1.551l9.256 11.579c-0.779 0.839-1.445 1.792-1.933 2.866-0.966 2.116-1.212 4.435-0.754 6.672l-13.812 5.029c-0.862-1.432-2.125-2.573-3.679-3.28-1.097-0.501-2.262-0.754-3.46-0.754-3.268 0-6.256 1.922-7.608 4.893-0.926 2.03-1.006 4.301-0.223 6.392 0.782 2.09 2.331 3.752 4.363 4.676 1.098 0.5 2.263 0.756 3.464 0.756 3.266 0 6.25-1.922 7.604-4.895 0.685-1.51 0.903-3.146 0.651-4.743l13.81-5.029c1.119 2.064 2.86 3.714 5.035 4.703 1.432 0.651 2.947 0.98 4.511 0.98 4.256 0 8.143-2.503 9.903-6.374C69.532 52.428 69.637 49.473 68.617 46.749zM31.466 64.189c-0.829 1.819-2.656 2.996-4.656 2.996-0.731 0-1.444-0.156-2.12-0.462-1.244-0.568-2.192-1.584-2.671-2.863-0.48-1.28-0.431-2.668 0.136-3.913 0.829-1.819 2.658-2.998 4.659-2.998 0.73 0 1.443 0.158 2.115 0.465 1.246 0.566 2.194 1.584 2.671 2.862C32.079 61.555 32.033 62.945 31.466 64.189z" fill="#001f3f" data-fill-palette-color="accent"></path></svg></g></svg></g></svg></g><defs></defs></svg><rect width="395.52" height="72.29834467660714" fill="none" stroke="none" visibility="hidden"></rect></g></svg></g></svg>